<?xml version="1.0" encoding="UTF-8"?>
<!-- Generator: Adobe Illustrator 24.2.3, SVG Export Plug-In . SVG Version: 6.00 Build 0)  -->
<svg width="560" height="560" enable-background="new 0 0 278.5 278.5" version="1.1" viewBox="0 0 560.00002 560.00003" xml:space="preserve" xmlns="http://www.w3.org/2000/svg">

<circle cx="280" cy="280" r="280" fill="#1a1a1f"/><path d="m317.24427 334.14407c-11.17847 7.34483-24.84105 9.79311-36.01954 9.79311-34.77749 0-65.82886-28.15516-65.82886-64.87927 0-34.27582 27.32528-64.87925 65.82886-64.87925 21.11491 0 42.22982 9.7931 55.89242 31.82757 11.1785 18.36205 8.69438 30.60342 12.42053 48.96547 6.21028 31.82757 24.84106 39.17237 40.9878 39.17237 40.98774 0 49.68214-47.7412 44.71393-79.56875-11.17849-75.89648-77.01287-130.23739-154.01475-131.14516-92.01075-1.08472-157.80623 74.91505-157.80623 153.17973 0 98.24722 77.17128 159.97145 157.80623 159.97145 28.56722 0 60.47956-8.11034 86.9783-25.98979" fill="none" stroke="#fff" stroke-miterlimit="22.9256" stroke-width="33.294"/></svg>
