<svg xmlns="http://www.w3.org/2000/svg" width="800" height="800" viewBox="0 0 1024 1024">
  <defs>
    <linearGradient id="j-bg" x1="0" y1="0" x2="1" y2="1">
      <stop offset="0%" stop-color="#8b3dff"/>
      <stop offset="100%" stop-color="#5c7cff"/>
    </linearGradient>
  </defs>
  <rect width="1024" height="1024" rx="190" fill="url(#j-bg)"/>
  <rect x="212" y="250" width="560" height="430" rx="64" fill="#ffffff" fill-opacity="0.16"/>
  <path d="M286 325h340a48 48 0 0 1 48 48v250a48 48 0 0 1-48 48H286a48 48 0 0 1-48-48V373a48 48 0 0 1 48-48Zm72 66a16 16 0 1 0 0 32h196a16 16 0 1 0 0-32Zm0 86a16 16 0 1 0 0 32h196a16 16 0 1 0 0-32Z" fill="#ffffff"/>
  <path d="M512 646c-33 0-60 31-60 69s27 69 60 69 60-31 60-69-27-69-60-69Z" fill="#ffffff"/>
  <path d="M512 708a12 12 0 0 0-12 12c0 21 9 40 12 40s12-19 12-40a12 12 0 0 0-12-12Z" fill="#5c7cff"/>
  <circle cx="512" cy="719" r="10" fill="#8b3dff"/>
</svg>
