<svg xmlns="http://www.w3.org/2000/svg" xml:space="preserve" width="602.701" height="101.5" viewBox="0 0 159.465 26.855"><g fill="#44be75"><g transform="translate(-43.814 -81.882)scale(1.09137)"><path d="M51.224 80.053c.567-.62 1.618-.62 2.186 0l10.748 11.72c.767.837.11 2.103-1.093 2.103H41.568c-1.202 0-1.86-1.266-1.093-2.103z" style="stroke-width:.264583"/><path d="M63.924 80.053c.567-.62 1.618-.62 2.186 0l10.748 11.72c.767.837.11 2.103-1.093 2.103H54.268c-1.202 0-1.86-1.266-1.093-2.103z" opacity=".7" style="stroke-width:.264583"/><circle cx="58.667" cy="76.942" r="1.587" style="stroke-width:.264583"/></g><path d="m88.453 160.32-1.693-1.112 9.578-12.303 1.482 1.27zm-.873.634q-1.032 0-1.032-1.032 0-1.005 1.032-1.005h9.552q1.032 0 1.032 1.005 0 1.032-1.032 1.032zm-.158-12.435q-1.032 0-1.032-1.006 0-1.03 1.032-1.031h9.577q1.005 0 1.006 1.031 0 1.006-1.006 1.006zm19.43 12.568q-2.17-.001-3.837-.926a6.9 6.9 0 0 1-2.62-2.62q-.951-1.666-.952-3.81 0-2.169.9-3.81.9-1.666 2.46-2.62 1.588-.951 3.652-.952 2.01 0 3.492.926a5.9 5.9 0 0 1 2.302 2.514q.82 1.614.82 3.678 0 .45-.29.74-.292.265-.742.265h-11.06v-1.826h11.193l-1.138.794q.027-1.455-.53-2.62a4.33 4.33 0 0 0-1.587-1.825q-1.032-.66-2.46-.661-1.509 0-2.646.688-1.11.687-1.72 1.931-.582 1.216-.582 2.778 0 1.56.688 2.778a5 5 0 0 0 1.879 1.905q1.216.688 2.778.688.9 0 1.825-.317.953-.318 1.508-.794a1.16 1.16 0 0 1 .715-.238q.423-.027.688.212.396.344.397.74.025.397-.344.688-.873.741-2.223 1.217t-2.566.477m10.245-.133q-.504 0-.82-.29-.318-.319-.318-.847v-12.198q0-.529.317-.82.318-.317.82-.317.503 0 .794.317.318.291.318.82v12.198q0 .529-.318.846-.29.291-.793.291m-.027-17.092q-.635 0-1.085-.45-.45-.476-.45-1.11 0-.662.45-1.086.477-.423 1.085-.423.61 0 1.058.423.477.424.477 1.085 0 .636-.45 1.111-.45.45-1.085.45m10.874 17.092q-1.377 0-2.46-.661a4.76 4.76 0 0 1-1.72-1.826q-.61-1.164-.61-2.62V142.99q0-.476.292-.794.317-.317.82-.317.476 0 .794.317.317.318.317.794v12.859q0 1.243.715 2.064.74.82 1.852.82h.793q.423 0 .715.317.29.318.29.794 0 .503-.37.82-.344.291-.9.291zm-6.35-12.012q-.45 0-.741-.264a.94.94 0 0 1-.291-.688q0-.424.29-.688.292-.291.742-.291h6.535q.45 0 .74.29a.89.89 0 0 1 .292.689.94.94 0 0 1-.291.688q-.291.264-.741.264z" style="stroke-width:.264583" transform="translate(-38.454 -140.29)"/><path fill-opacity=".7" d="m134.065 155.98-1.35-1.482 8.758-7.91q.344-.319.714-.292.397.027.715.37.317.345.29.742-.025.37-.37.688zm-.847 4.974a1.13 1.13 0 0 1-.794-.29 1.13 1.13 0 0 1-.29-.794v-18.495q0-.476.29-.767.317-.318.794-.318.503 0 .794.318.317.291.317.767v18.495q0 .476-.317.793-.291.291-.794.291m9.684-.132q-.37.318-.794.265-.397-.027-.688-.397l-5.741-7.065 1.56-1.428 5.821 7.17q.292.344.265.74-.026.397-.423.715m8.373.265q-2.01 0-3.598-.953a7.1 7.1 0 0 1-2.513-2.646q-.926-1.666-.926-3.757 0-2.116.952-3.783a7.1 7.1 0 0 1 2.646-2.62q1.666-.978 3.757-.979 2.064 0 3.704.98a6.9 6.9 0 0 1 2.62 2.619q.978 1.666 1.005 3.783l-.9.45q0 1.958-.9 3.519a6.65 6.65 0 0 1-2.407 2.487q-1.508.9-3.44.9m.318-2.011q1.481 0 2.62-.688a5.06 5.06 0 0 0 1.825-1.932q.688-1.217.688-2.725 0-1.534-.688-2.725a5.06 5.06 0 0 0-1.826-1.931q-1.137-.715-2.619-.715-1.455 0-2.646.715a5.26 5.26 0 0 0-1.852 1.931q-.688 1.19-.688 2.725 0 1.509.688 2.725a5.26 5.26 0 0 0 1.852 1.932q1.191.688 2.646.688m6.191 1.878q-.475 0-.82-.29-.317-.318-.317-.821v-4.366l.502-2.301 1.773.555v6.112q0 .503-.318.82-.317.291-.82.291m5.313 6.192q-.53 0-.847-.318-.291-.29-.291-.82v-12.356q.026-2.064.979-3.704a7.17 7.17 0 0 1 2.62-2.62q1.64-.978 3.703-.979 2.117 0 3.757.98a6.9 6.9 0 0 1 2.62 2.619q.978 1.666.979 3.783 0 2.09-.926 3.757a6.9 6.9 0 0 1-2.487 2.646q-1.588.953-3.599.953-1.72 0-3.122-.715-1.402-.74-2.275-1.931v7.567q0 .53-.318.82a1.08 1.08 0 0 1-.793.318m6.164-8.07q1.482 0 2.646-.688a5 5 0 0 0 1.852-1.932q.688-1.217.688-2.725 0-1.534-.688-2.725a5 5 0 0 0-1.852-1.931q-1.164-.715-2.646-.715-1.428 0-2.62.715a5.06 5.06 0 0 0-1.825 1.931q-.66 1.19-.661 2.725 0 1.509.661 2.725a5.06 5.06 0 0 0 1.826 1.932q1.165.687 2.62.688m15.56 2.01a9.9 9.9 0 0 1-3.202-.529q-1.534-.555-2.46-1.56a.96.96 0 0 1-.266-.794q.054-.45.424-.741.423-.318.846-.265.45.054.741.37.582.69 1.614 1.112 1.032.397 2.276.397 1.826 0 2.672-.609.873-.635.9-1.56 0-.9-.874-1.509-.846-.609-2.91-.952-2.672-.45-3.916-1.509-1.217-1.058-1.217-2.54 0-1.35.74-2.249.743-.9 1.932-1.349 1.218-.45 2.62-.45 1.773 0 3.069.609 1.296.582 2.09 1.587.291.37.238.794-.025.397-.423.635-.345.238-.82.159a1.34 1.34 0 0 1-.768-.423 3.9 3.9 0 0 0-1.508-1.032q-.846-.344-1.931-.344-1.375 0-2.223.555-.846.53-.846 1.376 0 .582.29 1.006.318.423 1.086.767.793.318 2.248.582 1.985.345 3.123.979 1.163.609 1.64 1.429.503.82.503 1.825 0 1.244-.715 2.196-.687.927-1.958 1.482t-3.016.556m11.483-.132q-1.11 0-1.958-.582-.846-.608-1.323-1.667-.476-1.058-.476-2.434v-14.87q0-.503.291-.793.318-.318.82-.318.477 0 .768.318.317.29.317.794v14.87q0 1.084.423 1.798.45.688 1.138.688h.662q.423 0 .687.318.265.291.265.767 0 .503-.397.82-.37.291-.979.291z" style="stroke-width:.264583" transform="translate(-38.454 -140.29)"/></g></svg>