<svg xmlns="http://www.w3.org/2000/svg" viewBox="0 0 680 180"><defs><style>.cls-1{fill:#e0e0e0;}.cls-2{fill:#3e48f8;}.cls-3{fill:#00c9ff;}.cls-4{fill:#00f500;}</style></defs><g id="Layer_2" data-name="Layer 2"><g id="Layer_1-2" data-name="Layer 1"><g id="Word_trademark" data-name="Word trademark"><path id="Path_1101" data-name="Path 1101" class="cls-1" d="M249,33.83v37.9h.23a10.39,10.39,0,0,1,1.91-3.15,15.2,15.2,0,0,1,3.27-2.82,17.61,17.61,0,0,1,4.49-2,19.38,19.38,0,0,1,5.62-.8,23.34,23.34,0,0,1,10.35,2A14.91,14.91,0,0,1,281,70.39a22,22,0,0,1,3,8.23,64,64,0,0,1,.82,10.26v30.21H268V92.25c0-1.59-.06-3.21-.17-4.9a15.69,15.69,0,0,0-1-4.69,7.28,7.28,0,0,0-7.61-4.84,10.39,10.39,0,0,0-5.3,1.13,7.84,7.84,0,0,0-3.14,3.19,12.87,12.87,0,0,0-1.41,4.49,36,36,0,0,0-.34,5.18v27.28H232V33.83Z"/><path id="Path_1102" data-name="Path 1102" class="cls-1" d="M349,109.62a27,27,0,0,1-10.22,8,31,31,0,0,1-12.85,2.82,34.71,34.71,0,0,1-11.9-2,28.58,28.58,0,0,1-9.69-5.8,27.32,27.32,0,0,1-6.48-9.08,30.76,30.76,0,0,1,0-23.68,27.32,27.32,0,0,1,6.48-9.08A28.74,28.74,0,0,1,314,65a34.77,34.77,0,0,1,11.91-2,27.13,27.13,0,0,1,10.56,2,22.23,22.23,0,0,1,8.12,5.8,26.61,26.61,0,0,1,5.17,9.11,37.16,37.16,0,0,1,1.81,11.84V97H312.34a13.48,13.48,0,0,0,4.39,7.71,12.46,12.46,0,0,0,8.35,2.88,12.78,12.78,0,0,0,7.05-1.86,19.22,19.22,0,0,0,5-4.79ZM334.67,85.5a9.79,9.79,0,0,0-2.82-7.32,10,10,0,0,0-7.56-3.05,12.29,12.29,0,0,0-8.63,3.21,10.63,10.63,0,0,0-2.37,3.27,10.74,10.74,0,0,0-1,3.89Z"/><path id="Path_1103" data-name="Path 1103" class="cls-1" d="M393.43,128q-1.73,4.41-3.28,7.77a18.78,18.78,0,0,1-4,5.7A15.63,15.63,0,0,1,380,145a33.26,33.26,0,0,1-9.82,1.19,39.3,39.3,0,0,1-12.63-2l2.25-13.87a19.18,19.18,0,0,0,7.86,1.69,14.49,14.49,0,0,0,4.63-.61,7.86,7.86,0,0,0,3-1.81,10.2,10.2,0,0,0,2-2.88c.52-1.12,1.12-2.45,1.68-3.93l1.25-3.16-24-55.26h18.28l14.1,36.19h.22l12.06-36.19h17.36Z"/><path id="Path_1104" data-name="Path 1104" class="cls-1" d="M427.76,33.83h16.92v85.26H427.76Z"/><path id="Path_1105" data-name="Path 1105" class="cls-1" d="M454.82,91.69a28.89,28.89,0,0,1,2.37-11.81,27.28,27.28,0,0,1,6.48-9.07A28.69,28.69,0,0,1,473.38,65a35.79,35.79,0,0,1,23.78,0,28.65,28.65,0,0,1,9.7,5.81,27,27,0,0,1,6.48,9.07,30.67,30.67,0,0,1,0,23.68,26.84,26.84,0,0,1-6.48,9.08,28.56,28.56,0,0,1-9.74,5.77,35.79,35.79,0,0,1-23.78,0,28.37,28.37,0,0,1-9.7-5.8,27.18,27.18,0,0,1-6.48-9.08A28.68,28.68,0,0,1,454.82,91.69Zm16.92,0a14.09,14.09,0,0,0,3.55,10q3.54,3.84,10,3.84t10-3.84a16,16,0,0,0,0-20.06q-3.57-3.82-10-3.83t-10,3.83A14.14,14.14,0,0,0,471.74,91.69Z"/><path id="Path_1106" data-name="Path 1106" class="cls-1" d="M582.93,114.46q0,15.55-7.86,23.59t-23.84,8.1a64.8,64.8,0,0,1-14.42-1.63,32.8,32.8,0,0,1-13.09-6.38l9.36-14a35.64,35.64,0,0,0,8.29,5.19,23.27,23.27,0,0,0,9.53,1.92q7.79,0,11.44-3.79a13.27,13.27,0,0,0,3.68-9.62v-5.3h-.23a16.13,16.13,0,0,1-7.28,5.61,23.34,23.34,0,0,1-8.18,1.64,28.3,28.3,0,0,1-11.05-2.09,24.8,24.8,0,0,1-8.51-5.86,26,26,0,0,1-5.47-9,34,34,0,0,1-.17-22,29.16,29.16,0,0,1,5-9.15A25,25,0,0,1,538,65.38,22.3,22.3,0,0,1,548.44,63a25.82,25.82,0,0,1,6.6.8,27.08,27.08,0,0,1,5.36,2,20.33,20.33,0,0,1,4.06,2.76,18.25,18.25,0,0,1,2.7,3h.23V64.29H583ZM540.25,91.35a13.18,13.18,0,0,0,3.88,9.41,14.62,14.62,0,0,0,4.28,3,13.27,13.27,0,0,0,10.66,0,14.8,14.8,0,0,0,4.35-3,13.31,13.31,0,0,0,0-18.83h0a14.77,14.77,0,0,0-4.35-3,13.19,13.19,0,0,0-10.66,0,14.77,14.77,0,0,0-4.28,3A13.22,13.22,0,0,0,540.25,91.35Z"/><path id="Path_1107" data-name="Path 1107" class="cls-1" d="M595.34,47.06A9.8,9.8,0,1,1,598.21,54,9.44,9.44,0,0,1,595.34,47.06Zm1.35,17.24h16.92v54.79H596.69Z"/><path id="Path_1108" data-name="Path 1108" class="cls-1" d="M627.2,64.29h16.25v7.44h.22a14.64,14.64,0,0,1,2.25-3.16,17.54,17.54,0,0,1,3.49-2.82,21.67,21.67,0,0,1,4.63-2,19.43,19.43,0,0,1,5.62-.8,23.5,23.5,0,0,1,10.36,2,15.08,15.08,0,0,1,6.16,5.47,22.29,22.29,0,0,1,3,8.23A64.06,64.06,0,0,1,680,88.87v30.22H663.08V92.24c0-1.58-.05-3.2-.17-4.9a15.37,15.37,0,0,0-1-4.68,7.25,7.25,0,0,0-7.61-4.84,10.44,10.44,0,0,0-5.3,1.12,8.08,8.08,0,0,0-3.11,3.19,12.93,12.93,0,0,0-1.41,4.49,39.07,39.07,0,0,0-.34,5.18v27.29H627.2Z"/></g><path class="cls-2" d="M90,180a89.54,89.54,0,0,0,51.56-16.25l-35-41.78a35.86,35.86,0,0,1-30,1.41l-35.4,42.19A89.63,89.63,0,0,0,90,180Z"/><path class="cls-3" d="M155.93,28.76,120.52,71a35.91,35.91,0,0,1-14,51l35.05,41.78a90,90,0,0,0,14.37-135Z"/><path class="cls-4" d="M126,90a35.81,35.81,0,0,0-5.48-19L76.58,123.39A36,36,0,0,0,126,90Z"/><path class="cls-1" d="M41.14,165.57l35.39-42.18a36,36,0,1,1,44-52.45l35.39-42.18h0A90,90,0,1,0,41.14,165.59Z"/></g></g></svg>