<svg viewBox="0 0 136 32" fill="none" xmlns="http://www.w3.org/2000/svg" alt="Logo Mangopay"><path d="M55.276 8.676c-.74-.45-1.637-.676-2.69-.676-.918 0-1.721.187-2.41.56a4.775 4.775 0 0 0-1.702 1.542h-.055V8.314h-3.95v14.074h3.95v-8.014c0-.555.111-1.053.333-1.495a2.52 2.52 0 0 1 .945-1.037c.409-.25.895-.375 1.458-.375.763 0 1.357.24 1.784.723.428.482.64 1.16.64 2.034v8.163h3.935v-8.722c0-1.192-.188-2.21-.566-3.05-.376-.843-.935-1.49-1.675-1.939h.003ZM22.17 8.013h.141a4.94 4.94 0 0 1 4.934 4.945v9.398h-3.882v-9.65c0-.68-.549-1.233-1.229-1.233h-.036a1.23 1.23 0 0 0-1.196.942l-1.787 7.375a3.743 3.743 0 0 1-3.632 2.866 3.748 3.748 0 0 1-3.748-3.752v-6.202c0-.68-.549-1.23-1.226-1.23-.566 0-1.059.39-1.192.94l-1.772 7.313a3.828 3.828 0 0 1-3.715 2.93A3.83 3.83 0 0 1 0 18.82V8.303h3.92v11.185h.035l1.815-7.604a4.93 4.93 0 0 1 4.81-3.87 4.93 4.93 0 0 1 4.925 4.937v6.537h.035l1.814-7.6a4.936 4.936 0 0 1 4.815-3.875Z" fill="currentColor"></path><path fill-rule="evenodd" clip-rule="evenodd" d="M39.017 10.062h.082l-.002-.001V8.327h3.949V22.39H39.11v-1.733h-.096a4.849 4.849 0 0 1-1.205 1.113c-.467.305-.98.537-1.538.696a6.467 6.467 0 0 1-1.778.238c-1.198 0-2.271-.299-3.22-.894-.948-.595-1.69-1.447-2.226-2.552-.536-1.106-.804-2.451-.804-3.87 0-1.42.261-2.692.784-3.816.521-1.124 1.257-1.998 2.206-2.621.948-.623 2.05-.935 3.302-.935.645 0 1.247.08 1.804.245a5.503 5.503 0 0 1 1.519.703c.454.306.84.67 1.158 1.1ZM37.512 18.8c.521-.32.928-.772 1.218-1.36v-.002c.29-.586.436-1.28.436-2.054 0-.773-.143-1.457-.429-2.053a3.233 3.233 0 0 0-1.218-1.386c-.527-.328-1.161-.492-1.825-.492-.663 0-1.257.16-1.784.478-.527.32-.935.775-1.225 1.366-.29.592-.436 1.291-.436 2.075 0 .784.15 1.47.45 2.062.299.593.709 1.048 1.231 1.366.523.319 1.096.478 1.778.478.68 0 1.281-.159 1.804-.478ZM69.372 10.13h.083V8.313h3.949V21.87c0 1.274-.3 2.373-.9 3.297-.598.924-1.442 1.627-2.532 2.109s-2.368.723-3.84.723c-1.316 0-2.482-.175-3.5-.525-1.016-.352-1.84-.877-2.471-1.577-.63-.7-1.015-1.575-1.15-2.621h3.935c.172.6.553 1.043 1.143 1.33.59.287 1.307.43 2.151.43.69 0 1.272-.124 1.75-.369.476-.246.839-.607 1.089-1.085.25-.479.375-1.05.375-1.714v-1.951h-.082a5.282 5.282 0 0 1-1.927 1.535c-.786.379-1.678.567-2.676.567-1.19 0-2.261-.284-3.214-.852-.952-.569-1.697-1.38-2.233-2.43-.536-1.052-.803-2.295-.803-3.68 0-1.384.263-2.607.79-3.672.527-1.066 1.264-1.894 2.213-2.485.948-.591 2.04-.888 3.275-.888.98 0 1.858.188 2.635.56a5.38 5.38 0 0 1 1.94 1.556Zm-1.565 8.06a3.028 3.028 0 0 0 1.218-1.255v-.003c.286-.541.429-1.172.429-1.89 0-.72-.143-1.357-.429-1.912a3.042 3.042 0 0 0-1.225-1.284c-.53-.299-1.127-.45-1.818-.45-.69 0-1.294.154-1.81.458a3.195 3.195 0 0 0-1.213 1.277c-.29.547-.435 1.179-.435 1.898 0 .72.145 1.35.435 1.89.29.544.699.964 1.225 1.264.527.3 1.13.45 1.812.45.68 0 1.284-.147 1.81-.443ZM85.807 8.948C84.67 8.315 83.397 8 81.98 8c-1.417 0-2.697.316-3.84.948a6.927 6.927 0 0 0-2.69 2.628c-.649 1.119-.974 2.384-.974 3.795s.33 2.69.987 3.809a6.839 6.839 0 0 0 2.697 2.6c1.14.615 2.403.922 3.793.922 1.389 0 2.68-.31 3.82-.928a6.85 6.85 0 0 0 2.689-2.6c.654-1.116.98-2.383.98-3.803s-.322-2.698-.967-3.809a6.934 6.934 0 0 0-2.67-2.614Zm-.824 8.525c-.313.601-.735 1.066-1.267 1.393-.53.327-1.119.492-1.764.492a3.251 3.251 0 0 1-1.762-.499 3.506 3.506 0 0 1-1.26-1.392c-.31-.597-.464-1.29-.464-2.082 0-.792.154-1.505.463-2.11.31-.604.727-1.073 1.254-1.406a3.245 3.245 0 0 1 1.77-.498 3.29 3.29 0 0 1 1.785.498c.526.333.944.802 1.253 1.406.31.605.464 1.304.464 2.096s-.157 1.502-.47 2.102h-.002ZM99.05 8.013c1.244 0 2.34.312 3.289.935.948.624 1.683 1.498 2.206 2.621.522 1.125.783 2.34.783 3.815s-.267 2.765-.804 3.871c-.536 1.106-1.277 1.956-2.226 2.552-.948.597-2.022.895-3.22.895-.626 0-1.224-.081-1.791-.245a5.707 5.707 0 0 1-1.56-.71 4.91 4.91 0 0 1-1.212-1.12h-.026v7.071H90.54V8.328h3.948V10.1h.027a4.694 4.694 0 0 1 1.172-1.126 5.414 5.414 0 0 1 1.545-.716 6.552 6.552 0 0 1 1.818-.246Zm.607 10.784a3.27 3.27 0 0 0 1.225-1.365v.002c.294-.592.442-1.27.442-2.062 0-.791-.145-1.484-.435-2.075a3.197 3.197 0 0 0-1.225-1.366c-.527-.319-1.095-.478-1.785-.478-.689 0-1.296.165-1.817.492-.523.327-.926.79-1.212 1.386-.286.595-.429 1.271-.429 2.053 0 .783.145 1.467.436 2.054.29.588.694 1.042 1.212 1.36.517.319 1.125.477 1.797.477.672 0 1.268-.159 1.791-.478ZM116.981 10.062h-.082a4.69 4.69 0 0 0-1.158-1.099 5.492 5.492 0 0 0-1.518-.703 6.364 6.364 0 0 0-1.804-.245c-1.254 0-2.354.312-3.302.935-.949.623-1.685 1.497-2.206 2.62-.523 1.125-.784 2.396-.784 3.816s.268 2.765.804 3.87c.536 1.107 1.277 1.958 2.226 2.553.948.595 2.022.894 3.22.894.626 0 1.219-.08 1.778-.238a5.576 5.576 0 0 0 1.538-.697 4.841 4.841 0 0 0 1.205-1.112h.096v1.733h3.935V8.327h-3.949v1.734l.001.001Zm-.368 7.378a3.228 3.228 0 0 1-1.218 1.359c-.523.319-1.123.478-1.805.478-.681 0-1.254-.159-1.777-.478-.523-.318-.932-.773-1.232-1.366-.3-.591-.45-1.278-.45-2.062 0-.784.145-1.483.435-2.075a3.206 3.206 0 0 1 1.225-1.366 3.386 3.386 0 0 1 1.785-.478c.663 0 1.297.164 1.824.492.527.327.933.789 1.219 1.385.286.597.428 1.281.428 2.054 0 .773-.145 1.468-.435 2.054l.001.003Z" fill="currentColor"></path><path d="m129.532 15.576 2.411-7.262H136L129.86 24.3c-.427 1.127-1.083 1.977-1.968 2.546-.885.568-2.113.852-3.684.852h-1.484v-3.195h1.484c.607 0 1.084-.088 1.43-.266.345-.177.616-.489.816-.935l.369-.887-5.502-14.101h4.044l2.479 7.262c.235.728.511 1.597.83 2.607h.068c.3-1 .563-1.87.79-2.607Z" fill="currentColor"></path></svg>
