<?xml version="1.0" encoding="UTF-8"?>
<svg id="MultiSafepay-logo" xmlns="http://www.w3.org/2000/svg" version="1.1" viewBox="0 0 232.44094 39.68504">
  <!-- Generator: Adobe Illustrator 29.8.3, SVG Export Plug-In . SVG Version: 2.1.1 Build 3)  -->
  <defs>
    <style>
      .st0 {
        fill: #004a71;
      }

      .st1 {
        fill: #00abee;
      }
    </style>
  </defs>
  <g id="Wordmark">
    <g id="Wordmark-darkblue">
      <path id="y" class="st0" d="M226.9129,14.98322h5.52804l-10.51699,24.44979h-5.45326l3.80872-8.30612-6.89541-16.14445h5.67607l3.87274,10.4941,3.98008-10.49332Z"/>
      <path id="a" class="st0" d="M201.85207,14.76346c2.50616,0,4.20135,1.10072,5.15957,2.56831v-2.34817h5.08554v16.6574h-5.08554v-2.34817c-.95822,1.46758-2.65341,2.56831-5.15957,2.56831-4.05409,0-7.37123-3.30219-7.37123-8.65888.074-5.13662,3.31714-8.43881,7.37123-8.43881ZM203.47324,19.1663c-1.91645,0-3.61162,1.39423-3.61162,4.03598s1.69517,4.10926,3.61162,4.10926,3.61161-1.46759,3.61161-4.10926c0-2.56831-1.69517-4.03598-3.61159-4.03598h-.00002Z"/>
      <path id="p" class="st0" d="M186.07814,14.76346c4.05411,0,7.44448,3.30218,7.44448,8.58552,0,5.20998-3.24312,8.65888-7.44448,8.65888-2.43215,0-4.20134-1.17409-5.15956-2.56831v10.24549h-5.08633V14.98361h5.08633v2.34817c.9582-1.46758,2.72741-2.56831,5.15956-2.56831ZM184.5302,19.1663c-1.91643,0-3.61161,1.46766-3.61161,4.10933s1.69517,4.10926,3.61161,4.10926,3.68562-1.46759,3.68562-4.10926-1.76919-4.10933-3.68562-4.10933Z"/>
      <path id="e" class="st0" d="M165.88162,31.86092c-4.8643,0-8.47591-3.3021-8.47591-8.58552s3.46436-8.58545,8.47591-8.58545c4.8651,0,8.32946,3.22867,8.32946,8.29194.01048.49033-.01425.98079-.07402,1.46758h-11.64581c.14723,2.20145,1.54795,3.1554,3.16912,3.1554,1.13051.04918,2.17886-.58847,2.65418-1.61438h5.45404c-.66298,3.37546-3.61162,5.87042-7.88698,5.87042ZM162.56525,21.73445h6.48626c0-1.83452-1.40072-2.86181-3.09589-2.86181-1.76919.00001-3.09588.95394-3.39037,2.86181Z"/>
      <path id="f" class="st0" d="M149.37071,19.17216h-1.84242v-4.18871h1.84242v-.44029c0-4.3294,2.65418-6.53082,7.81373-6.31069v4.40281c-1.99043-.14679-2.65339.44029-2.65339,2.20145v.14671h2.72664v4.1827h-2.72662v12.47463h-5.08633v-12.46861h-.07403Z"/>
      <path id="a1" data-name="a" class="st0" d="M136.10372,14.76346c2.50616,0,4.20135,1.10072,5.15956,2.56831v-2.34817h5.08556v16.6574h-5.08556v-2.34817c-.95822,1.46758-2.65341,2.56831-5.15956,2.56831-4.0541,0-7.37124-3.30219-7.37124-8.65888-.07325-5.13662,3.24312-8.43881,7.37123-8.43881ZM137.57766,19.1663c-1.91643,0-3.61162,1.39423-3.61162,4.03598s1.69519,4.10926,3.61162,4.10926,3.61161-1.46759,3.61161-4.10926c0-2.56831-1.69517-4.03598-3.61161-4.03598Z"/>
      <path id="s" class="st0" d="M120.10855,31.86115c-4.49583,0-8.10744-2.20138-8.25545-6.53086h5.45481c.14724,1.61437,1.17947,2.34817,2.57939,2.34817,1.47471,0,2.43293-.73379,2.43293-1.98123,0-3.88919-10.54036-1.76116-10.46714-9.24596,0-3.96254,3.24312-6.23728,7.73973-6.23728,4.56983,0,7.73973,2.27473,7.88697,6.31071h-5.52805c-.07401-1.32087-1.03222-2.1281-2.43293-2.20145-1.2527,0-2.13768.58708-2.13768,1.90788,0,3.59568,10.39313,1.9813,10.39313,9.02581,0,3.66903-2.80064,6.60421-7.66572,6.60421Z"/>
    </g>
    <g id="Wordmark-lightblue">
      <path id="i" class="st1" d="M104.33462,10.5807c0-1.54101,1.25348-2.78846,3.02266-2.78846,1.7684,0,3.02188,1.24744,3.02188,2.78846,0,1.54094-1.25348,2.7151-3.02188,2.7151-1.84321,0-3.02266-1.24752-3.02266-2.7151ZM104.77712,14.98353h5.08633v16.65732h-5.08633V14.98353Z"/>
      <path id="t" class="st1" d="M94.60523,19.17216h-2.06367v-4.18871h2.06367v-4.25605h5.08633v4.25605h3.31636v4.18269h-3.24313v6.75102c0,.95394.44249,1.39423,1.54795,1.39423h1.8432v4.32939h-2.58017c-3.46437,0-5.89653-1.46758-5.89653-5.79706v-6.67155h-.074Z"/>
      <path id="l" class="st1" d="M86.20253,9.62691h5.08633v22.01386h-5.08633V9.62691Z"/>
      <path id="u" class="st1" d="M83.69638,31.64054h-5.08555v-2.27481c-1.1886,1.55963-3.05069,2.45921-5.01248,2.42153-3.83286,0-6.48641-2.64167-6.48641-7.11786v-9.68617h5.08593v9.09909c0,2.27481,1.25308,3.52225,3.16952,3.52225,1.99012,0,3.24344-1.24744,3.24344-3.52225v-9.09909h5.08555v16.65732Z"/>
      <path id="m" class="st1" d="M40.79795,10.72741h6.11785l5.89669,14.5293,5.74929-14.5293h6.04415v20.91337h-5.08594v-12.54807l-4.71738,12.54807h-4.12765l-4.64368-12.62142v12.62142h-5.23334V10.72741Z"/>
    </g>
  </g>
  <g id="Icon">
    <path id="Icon-darkblue" class="st0" d="M31.67209,0l-14.68433,12.27429,14.68433,12.27437V0Z"/>
    <path id="Icon-lightblue" class="st1" d="M31.67209,26.4959L0,0v31.64077h31.67209v-5.14487Z"/>
  </g>
</svg>